<mxfile host="Electron" modified="2024-03-13T16:46:03.467Z" agent="Mozilla/5.0 (Windows NT 10.0; Win64; x64) AppleWebKit/537.36 (KHTML, like Gecko) draw.io/23.1.5 Chrome/120.0.6099.109 Electron/28.1.0 Safari/537.36" etag="VLffUAybB5noAcYZ5coT" version="23.1.5" type="device">
  <diagram name="Pagina-1" id="IoRQxU7-OnbW6YhPWovw">
    <mxGraphModel dx="1234" dy="1906" grid="1" gridSize="10" guides="1" tooltips="1" connect="1" arrows="1" fold="1" page="1" pageScale="1" pageWidth="827" pageHeight="1169" math="0" shadow="0">
      <root>
        <mxCell id="0" />
        <mxCell id="1" parent="0" />
        <mxCell id="eq973xPTBbHm2vx8-wRq-42" style="edgeStyle=orthogonalEdgeStyle;rounded=0;orthogonalLoop=1;jettySize=auto;html=1;entryX=0;entryY=0.5;entryDx=0;entryDy=0;" parent="1" source="eq973xPTBbHm2vx8-wRq-1" target="eq973xPTBbHm2vx8-wRq-11" edge="1">
          <mxGeometry relative="1" as="geometry" />
        </mxCell>
        <mxCell id="eq973xPTBbHm2vx8-wRq-43" style="edgeStyle=orthogonalEdgeStyle;rounded=0;orthogonalLoop=1;jettySize=auto;html=1;entryX=0;entryY=0.5;entryDx=0;entryDy=0;" parent="1" source="eq973xPTBbHm2vx8-wRq-1" target="eq973xPTBbHm2vx8-wRq-13" edge="1">
          <mxGeometry relative="1" as="geometry" />
        </mxCell>
        <mxCell id="eq973xPTBbHm2vx8-wRq-44" style="edgeStyle=orthogonalEdgeStyle;rounded=0;orthogonalLoop=1;jettySize=auto;html=1;entryX=0;entryY=0.5;entryDx=0;entryDy=0;" parent="1" source="eq973xPTBbHm2vx8-wRq-1" target="eq973xPTBbHm2vx8-wRq-15" edge="1">
          <mxGeometry relative="1" as="geometry" />
        </mxCell>
        <mxCell id="eq973xPTBbHm2vx8-wRq-47" style="edgeStyle=orthogonalEdgeStyle;rounded=0;orthogonalLoop=1;jettySize=auto;html=1;entryX=1;entryY=0.5;entryDx=0;entryDy=0;endArrow=classic;endFill=1;" parent="1" source="eq973xPTBbHm2vx8-wRq-1" target="eq973xPTBbHm2vx8-wRq-45" edge="1">
          <mxGeometry relative="1" as="geometry" />
        </mxCell>
        <mxCell id="eq973xPTBbHm2vx8-wRq-51" style="edgeStyle=orthogonalEdgeStyle;rounded=0;orthogonalLoop=1;jettySize=auto;html=1;entryX=0;entryY=0.5;entryDx=0;entryDy=0;" parent="1" source="eq973xPTBbHm2vx8-wRq-1" target="eq973xPTBbHm2vx8-wRq-49" edge="1">
          <mxGeometry relative="1" as="geometry" />
        </mxCell>
        <mxCell id="eq973xPTBbHm2vx8-wRq-76" style="edgeStyle=orthogonalEdgeStyle;rounded=0;orthogonalLoop=1;jettySize=auto;html=1;entryX=0.5;entryY=1;entryDx=0;entryDy=0;" parent="1" source="eq973xPTBbHm2vx8-wRq-1" target="eq973xPTBbHm2vx8-wRq-73" edge="1">
          <mxGeometry relative="1" as="geometry" />
        </mxCell>
        <mxCell id="eq973xPTBbHm2vx8-wRq-1" value="Camera" style="rounded=0;whiteSpace=wrap;html=1;" parent="1" vertex="1">
          <mxGeometry x="884" y="40" width="120" height="60" as="geometry" />
        </mxCell>
        <mxCell id="eq973xPTBbHm2vx8-wRq-39" style="edgeStyle=orthogonalEdgeStyle;rounded=0;orthogonalLoop=1;jettySize=auto;html=1;entryX=0;entryY=0.5;entryDx=0;entryDy=0;" parent="1" source="eq973xPTBbHm2vx8-wRq-2" target="eq973xPTBbHm2vx8-wRq-5" edge="1">
          <mxGeometry relative="1" as="geometry" />
        </mxCell>
        <mxCell id="eq973xPTBbHm2vx8-wRq-40" style="edgeStyle=orthogonalEdgeStyle;rounded=0;orthogonalLoop=1;jettySize=auto;html=1;entryX=0;entryY=0.5;entryDx=0;entryDy=0;" parent="1" source="eq973xPTBbHm2vx8-wRq-2" target="eq973xPTBbHm2vx8-wRq-7" edge="1">
          <mxGeometry relative="1" as="geometry" />
        </mxCell>
        <mxCell id="eq973xPTBbHm2vx8-wRq-41" style="edgeStyle=orthogonalEdgeStyle;rounded=0;orthogonalLoop=1;jettySize=auto;html=1;entryX=0;entryY=0.5;entryDx=0;entryDy=0;" parent="1" source="eq973xPTBbHm2vx8-wRq-2" target="eq973xPTBbHm2vx8-wRq-9" edge="1">
          <mxGeometry relative="1" as="geometry" />
        </mxCell>
        <mxCell id="eq973xPTBbHm2vx8-wRq-46" style="edgeStyle=orthogonalEdgeStyle;rounded=0;orthogonalLoop=1;jettySize=auto;html=1;entryX=0;entryY=0.5;entryDx=0;entryDy=0;endArrow=doubleBlock;endFill=1;" parent="1" source="eq973xPTBbHm2vx8-wRq-2" target="eq973xPTBbHm2vx8-wRq-45" edge="1">
          <mxGeometry relative="1" as="geometry" />
        </mxCell>
        <mxCell id="eq973xPTBbHm2vx8-wRq-66" style="edgeStyle=orthogonalEdgeStyle;rounded=0;orthogonalLoop=1;jettySize=auto;html=1;endArrow=doubleBlock;endFill=1;" parent="1" source="eq973xPTBbHm2vx8-wRq-2" target="eq973xPTBbHm2vx8-wRq-64" edge="1">
          <mxGeometry relative="1" as="geometry" />
        </mxCell>
        <mxCell id="eq973xPTBbHm2vx8-wRq-69" style="edgeStyle=orthogonalEdgeStyle;rounded=0;orthogonalLoop=1;jettySize=auto;html=1;entryX=1;entryY=0.5;entryDx=0;entryDy=0;endArrow=doubleBlock;endFill=1;" parent="1" source="eq973xPTBbHm2vx8-wRq-2" target="eq973xPTBbHm2vx8-wRq-67" edge="1">
          <mxGeometry relative="1" as="geometry" />
        </mxCell>
        <mxCell id="eq973xPTBbHm2vx8-wRq-2" value="Albergo" style="rounded=0;whiteSpace=wrap;html=1;" parent="1" vertex="1">
          <mxGeometry x="414" y="40" width="120" height="60" as="geometry" />
        </mxCell>
        <mxCell id="eq973xPTBbHm2vx8-wRq-53" style="edgeStyle=orthogonalEdgeStyle;rounded=0;orthogonalLoop=1;jettySize=auto;html=1;entryX=0;entryY=0.5;entryDx=0;entryDy=0;" parent="1" source="eq973xPTBbHm2vx8-wRq-3" target="eq973xPTBbHm2vx8-wRq-31" edge="1">
          <mxGeometry relative="1" as="geometry" />
        </mxCell>
        <mxCell id="eq973xPTBbHm2vx8-wRq-54" style="edgeStyle=orthogonalEdgeStyle;rounded=0;orthogonalLoop=1;jettySize=auto;html=1;entryX=0;entryY=0.5;entryDx=0;entryDy=0;" parent="1" source="eq973xPTBbHm2vx8-wRq-3" target="eq973xPTBbHm2vx8-wRq-33" edge="1">
          <mxGeometry relative="1" as="geometry" />
        </mxCell>
        <mxCell id="eq973xPTBbHm2vx8-wRq-55" style="edgeStyle=orthogonalEdgeStyle;rounded=0;orthogonalLoop=1;jettySize=auto;html=1;entryX=0;entryY=0.5;entryDx=0;entryDy=0;" parent="1" source="eq973xPTBbHm2vx8-wRq-3" target="eq973xPTBbHm2vx8-wRq-35" edge="1">
          <mxGeometry relative="1" as="geometry" />
        </mxCell>
        <mxCell id="eq973xPTBbHm2vx8-wRq-56" style="edgeStyle=orthogonalEdgeStyle;rounded=0;orthogonalLoop=1;jettySize=auto;html=1;entryX=0;entryY=0.5;entryDx=0;entryDy=0;" parent="1" source="eq973xPTBbHm2vx8-wRq-3" target="eq973xPTBbHm2vx8-wRq-37" edge="1">
          <mxGeometry relative="1" as="geometry" />
        </mxCell>
        <mxCell id="eq973xPTBbHm2vx8-wRq-65" style="edgeStyle=orthogonalEdgeStyle;rounded=0;orthogonalLoop=1;jettySize=auto;html=1;entryX=0.5;entryY=1;entryDx=0;entryDy=0;" parent="1" source="eq973xPTBbHm2vx8-wRq-3" target="eq973xPTBbHm2vx8-wRq-64" edge="1">
          <mxGeometry relative="1" as="geometry" />
        </mxCell>
        <mxCell id="eq973xPTBbHm2vx8-wRq-3" value="Dipendente" style="rounded=0;whiteSpace=wrap;html=1;" parent="1" vertex="1">
          <mxGeometry x="414" y="410" width="120" height="60" as="geometry" />
        </mxCell>
        <mxCell id="eq973xPTBbHm2vx8-wRq-58" style="edgeStyle=orthogonalEdgeStyle;rounded=0;orthogonalLoop=1;jettySize=auto;html=1;entryX=0;entryY=0.5;entryDx=0;entryDy=0;" parent="1" source="eq973xPTBbHm2vx8-wRq-4" target="eq973xPTBbHm2vx8-wRq-17" edge="1">
          <mxGeometry relative="1" as="geometry" />
        </mxCell>
        <mxCell id="eq973xPTBbHm2vx8-wRq-59" style="edgeStyle=orthogonalEdgeStyle;rounded=0;orthogonalLoop=1;jettySize=auto;html=1;entryX=0;entryY=0.5;entryDx=0;entryDy=0;" parent="1" source="eq973xPTBbHm2vx8-wRq-4" target="eq973xPTBbHm2vx8-wRq-19" edge="1">
          <mxGeometry relative="1" as="geometry" />
        </mxCell>
        <mxCell id="eq973xPTBbHm2vx8-wRq-71" style="edgeStyle=orthogonalEdgeStyle;rounded=0;orthogonalLoop=1;jettySize=auto;html=1;entryX=0;entryY=0.5;entryDx=0;entryDy=0;endArrow=doubleBlock;endFill=1;" parent="1" source="eq973xPTBbHm2vx8-wRq-4" target="eq973xPTBbHm2vx8-wRq-60" edge="1">
          <mxGeometry relative="1" as="geometry" />
        </mxCell>
        <mxCell id="eq973xPTBbHm2vx8-wRq-92" style="edgeStyle=orthogonalEdgeStyle;rounded=0;orthogonalLoop=1;jettySize=auto;html=1;entryX=0;entryY=0.5;entryDx=0;entryDy=0;" parent="1" source="eq973xPTBbHm2vx8-wRq-4" target="eq973xPTBbHm2vx8-wRq-21" edge="1">
          <mxGeometry relative="1" as="geometry" />
        </mxCell>
        <mxCell id="eq973xPTBbHm2vx8-wRq-4" value="Cliente" style="rounded=0;whiteSpace=wrap;html=1;" parent="1" vertex="1">
          <mxGeometry x="414" y="-290" width="120" height="60" as="geometry" />
        </mxCell>
        <mxCell id="eq973xPTBbHm2vx8-wRq-5" value="" style="ellipse;whiteSpace=wrap;html=1;aspect=fixed;fillColor=#000000;" parent="1" vertex="1">
          <mxGeometry x="514" y="110" width="30" height="30" as="geometry" />
        </mxCell>
        <mxCell id="eq973xPTBbHm2vx8-wRq-6" value="Nome" style="text;html=1;align=center;verticalAlign=middle;whiteSpace=wrap;rounded=0;" parent="1" vertex="1">
          <mxGeometry x="544" y="110" width="60" height="30" as="geometry" />
        </mxCell>
        <mxCell id="eq973xPTBbHm2vx8-wRq-7" value="" style="ellipse;whiteSpace=wrap;html=1;aspect=fixed;fillColor=#000000;" parent="1" vertex="1">
          <mxGeometry x="514" y="150" width="30" height="30" as="geometry" />
        </mxCell>
        <mxCell id="eq973xPTBbHm2vx8-wRq-8" value="Indirizzo" style="text;html=1;align=center;verticalAlign=middle;whiteSpace=wrap;rounded=0;" parent="1" vertex="1">
          <mxGeometry x="554" y="150" width="60" height="30" as="geometry" />
        </mxCell>
        <mxCell id="eq973xPTBbHm2vx8-wRq-9" value="" style="ellipse;whiteSpace=wrap;html=1;aspect=fixed;" parent="1" vertex="1">
          <mxGeometry x="514" y="190" width="30" height="30" as="geometry" />
        </mxCell>
        <mxCell id="eq973xPTBbHm2vx8-wRq-10" value="&amp;nbsp;Valutazione" style="text;html=1;align=center;verticalAlign=middle;whiteSpace=wrap;rounded=0;" parent="1" vertex="1">
          <mxGeometry x="554" y="190" width="60" height="30" as="geometry" />
        </mxCell>
        <mxCell id="eq973xPTBbHm2vx8-wRq-11" value="" style="ellipse;whiteSpace=wrap;html=1;aspect=fixed;fillColor=#000000;" parent="1" vertex="1">
          <mxGeometry x="974" y="110" width="30" height="30" as="geometry" />
        </mxCell>
        <mxCell id="eq973xPTBbHm2vx8-wRq-12" value="Num_Cam" style="text;html=1;align=center;verticalAlign=middle;whiteSpace=wrap;rounded=0;" parent="1" vertex="1">
          <mxGeometry x="1014" y="110" width="60" height="30" as="geometry" />
        </mxCell>
        <mxCell id="eq973xPTBbHm2vx8-wRq-13" value="" style="ellipse;whiteSpace=wrap;html=1;aspect=fixed;" parent="1" vertex="1">
          <mxGeometry x="974" y="150" width="30" height="30" as="geometry" />
        </mxCell>
        <mxCell id="eq973xPTBbHm2vx8-wRq-14" value="Capacita" style="text;html=1;align=center;verticalAlign=middle;whiteSpace=wrap;rounded=0;" parent="1" vertex="1">
          <mxGeometry x="1014" y="150" width="60" height="30" as="geometry" />
        </mxCell>
        <mxCell id="eq973xPTBbHm2vx8-wRq-15" value="" style="ellipse;whiteSpace=wrap;html=1;aspect=fixed;" parent="1" vertex="1">
          <mxGeometry x="974" y="190" width="30" height="30" as="geometry" />
        </mxCell>
        <mxCell id="eq973xPTBbHm2vx8-wRq-16" value="Tariffa" style="text;html=1;align=center;verticalAlign=middle;whiteSpace=wrap;rounded=0;" parent="1" vertex="1">
          <mxGeometry x="1004" y="190" width="60" height="30" as="geometry" />
        </mxCell>
        <mxCell id="eq973xPTBbHm2vx8-wRq-17" value="" style="ellipse;whiteSpace=wrap;html=1;aspect=fixed;" parent="1" vertex="1">
          <mxGeometry x="514" y="-220" width="30" height="30" as="geometry" />
        </mxCell>
        <mxCell id="eq973xPTBbHm2vx8-wRq-18" value="Nome" style="text;html=1;align=center;verticalAlign=middle;whiteSpace=wrap;rounded=0;" parent="1" vertex="1">
          <mxGeometry x="544" y="-220" width="60" height="30" as="geometry" />
        </mxCell>
        <mxCell id="eq973xPTBbHm2vx8-wRq-19" value="" style="ellipse;whiteSpace=wrap;html=1;aspect=fixed;" parent="1" vertex="1">
          <mxGeometry x="514" y="-180" width="30" height="30" as="geometry" />
        </mxCell>
        <mxCell id="eq973xPTBbHm2vx8-wRq-20" value="Cognome" style="text;html=1;align=center;verticalAlign=middle;whiteSpace=wrap;rounded=0;" parent="1" vertex="1">
          <mxGeometry x="554" y="-180" width="60" height="30" as="geometry" />
        </mxCell>
        <mxCell id="eq973xPTBbHm2vx8-wRq-21" value="" style="ellipse;whiteSpace=wrap;html=1;aspect=fixed;" parent="1" vertex="1">
          <mxGeometry x="514" y="-140" width="30" height="30" as="geometry" />
        </mxCell>
        <mxCell id="eq973xPTBbHm2vx8-wRq-22" value="Contatto" style="text;html=1;align=center;verticalAlign=middle;whiteSpace=wrap;rounded=0;" parent="1" vertex="1">
          <mxGeometry x="554" y="-140" width="60" height="30" as="geometry" />
        </mxCell>
        <mxCell id="eq973xPTBbHm2vx8-wRq-68" style="edgeStyle=orthogonalEdgeStyle;rounded=0;orthogonalLoop=1;jettySize=auto;html=1;entryX=0;entryY=0.5;entryDx=0;entryDy=0;" parent="1" source="eq973xPTBbHm2vx8-wRq-23" target="eq973xPTBbHm2vx8-wRq-67" edge="1">
          <mxGeometry relative="1" as="geometry" />
        </mxCell>
        <mxCell id="eq973xPTBbHm2vx8-wRq-81" style="edgeStyle=orthogonalEdgeStyle;rounded=0;orthogonalLoop=1;jettySize=auto;html=1;entryX=0;entryY=0.5;entryDx=0;entryDy=0;" parent="1" source="eq973xPTBbHm2vx8-wRq-23" target="eq973xPTBbHm2vx8-wRq-24" edge="1">
          <mxGeometry relative="1" as="geometry" />
        </mxCell>
        <mxCell id="eq973xPTBbHm2vx8-wRq-82" style="edgeStyle=orthogonalEdgeStyle;rounded=0;orthogonalLoop=1;jettySize=auto;html=1;entryX=0;entryY=0.5;entryDx=0;entryDy=0;" parent="1" source="eq973xPTBbHm2vx8-wRq-23" target="eq973xPTBbHm2vx8-wRq-26" edge="1">
          <mxGeometry relative="1" as="geometry" />
        </mxCell>
        <mxCell id="eq973xPTBbHm2vx8-wRq-83" style="edgeStyle=orthogonalEdgeStyle;rounded=0;orthogonalLoop=1;jettySize=auto;html=1;entryX=0;entryY=0.5;entryDx=0;entryDy=0;" parent="1" source="eq973xPTBbHm2vx8-wRq-23" target="eq973xPTBbHm2vx8-wRq-28" edge="1">
          <mxGeometry relative="1" as="geometry" />
        </mxCell>
        <mxCell id="eq973xPTBbHm2vx8-wRq-23" value="Facility" style="rounded=0;whiteSpace=wrap;html=1;" parent="1" vertex="1">
          <mxGeometry x="10" y="40" width="120" height="60" as="geometry" />
        </mxCell>
        <mxCell id="eq973xPTBbHm2vx8-wRq-24" value="" style="ellipse;whiteSpace=wrap;html=1;aspect=fixed;" parent="1" vertex="1">
          <mxGeometry x="100" y="110" width="30" height="30" as="geometry" />
        </mxCell>
        <mxCell id="eq973xPTBbHm2vx8-wRq-25" value="Nome" style="text;html=1;align=center;verticalAlign=middle;whiteSpace=wrap;rounded=0;" parent="1" vertex="1">
          <mxGeometry x="130" y="110" width="60" height="30" as="geometry" />
        </mxCell>
        <mxCell id="eq973xPTBbHm2vx8-wRq-26" value="" style="ellipse;whiteSpace=wrap;html=1;aspect=fixed;" parent="1" vertex="1">
          <mxGeometry x="100" y="150" width="30" height="30" as="geometry" />
        </mxCell>
        <mxCell id="eq973xPTBbHm2vx8-wRq-27" value="Descrizione" style="text;html=1;align=center;verticalAlign=middle;whiteSpace=wrap;rounded=0;" parent="1" vertex="1">
          <mxGeometry x="140" y="150" width="60" height="30" as="geometry" />
        </mxCell>
        <mxCell id="eq973xPTBbHm2vx8-wRq-28" value="" style="ellipse;whiteSpace=wrap;html=1;aspect=fixed;" parent="1" vertex="1">
          <mxGeometry x="100" y="190" width="30" height="30" as="geometry" />
        </mxCell>
        <mxCell id="eq973xPTBbHm2vx8-wRq-29" value="Orari Apertura" style="text;html=1;align=center;verticalAlign=middle;whiteSpace=wrap;rounded=0;" parent="1" vertex="1">
          <mxGeometry x="140" y="190" width="90" height="30" as="geometry" />
        </mxCell>
        <mxCell id="eq973xPTBbHm2vx8-wRq-31" value="" style="ellipse;whiteSpace=wrap;html=1;aspect=fixed;" parent="1" vertex="1">
          <mxGeometry x="504" y="480" width="30" height="30" as="geometry" />
        </mxCell>
        <mxCell id="eq973xPTBbHm2vx8-wRq-32" value="Nome" style="text;html=1;align=center;verticalAlign=middle;whiteSpace=wrap;rounded=0;" parent="1" vertex="1">
          <mxGeometry x="534" y="480" width="60" height="30" as="geometry" />
        </mxCell>
        <mxCell id="eq973xPTBbHm2vx8-wRq-33" value="" style="ellipse;whiteSpace=wrap;html=1;aspect=fixed;" parent="1" vertex="1">
          <mxGeometry x="504" y="520" width="30" height="30" as="geometry" />
        </mxCell>
        <mxCell id="eq973xPTBbHm2vx8-wRq-34" value="Cognome" style="text;html=1;align=center;verticalAlign=middle;whiteSpace=wrap;rounded=0;" parent="1" vertex="1">
          <mxGeometry x="544" y="520" width="60" height="30" as="geometry" />
        </mxCell>
        <mxCell id="eq973xPTBbHm2vx8-wRq-35" value="" style="ellipse;whiteSpace=wrap;html=1;aspect=fixed;" parent="1" vertex="1">
          <mxGeometry x="504" y="560" width="30" height="30" as="geometry" />
        </mxCell>
        <mxCell id="eq973xPTBbHm2vx8-wRq-36" value="Posizione" style="text;html=1;align=center;verticalAlign=middle;whiteSpace=wrap;rounded=0;" parent="1" vertex="1">
          <mxGeometry x="544" y="560" width="60" height="30" as="geometry" />
        </mxCell>
        <mxCell id="eq973xPTBbHm2vx8-wRq-37" value="" style="ellipse;whiteSpace=wrap;html=1;aspect=fixed;" parent="1" vertex="1">
          <mxGeometry x="504" y="600" width="30" height="30" as="geometry" />
        </mxCell>
        <mxCell id="eq973xPTBbHm2vx8-wRq-38" value="Det_cont" style="text;html=1;align=center;verticalAlign=middle;whiteSpace=wrap;rounded=0;" parent="1" vertex="1">
          <mxGeometry x="544" y="600" width="60" height="30" as="geometry" />
        </mxCell>
        <mxCell id="eq973xPTBbHm2vx8-wRq-45" value="Possiede" style="rhombus;whiteSpace=wrap;html=1;" parent="1" vertex="1">
          <mxGeometry x="674" y="30" width="80" height="80" as="geometry" />
        </mxCell>
        <mxCell id="eq973xPTBbHm2vx8-wRq-48" value="" style="endArrow=none;html=1;rounded=0;" parent="1" edge="1">
          <mxGeometry width="50" height="50" relative="1" as="geometry">
            <mxPoint x="604" y="100" as="sourcePoint" />
            <mxPoint x="604" y="40" as="targetPoint" />
          </mxGeometry>
        </mxCell>
        <mxCell id="eq973xPTBbHm2vx8-wRq-49" value="" style="ellipse;whiteSpace=wrap;html=1;aspect=fixed;fillColor=#FFFFFF;" parent="1" vertex="1">
          <mxGeometry x="974" y="230" width="30" height="30" as="geometry" />
        </mxCell>
        <mxCell id="eq973xPTBbHm2vx8-wRq-50" value="Tipo" style="text;html=1;align=center;verticalAlign=middle;whiteSpace=wrap;rounded=0;" parent="1" vertex="1">
          <mxGeometry x="1004" y="230" width="60" height="30" as="geometry" />
        </mxCell>
        <mxCell id="eq973xPTBbHm2vx8-wRq-52" value="" style="endArrow=none;html=1;rounded=0;" parent="1" edge="1">
          <mxGeometry width="50" height="50" relative="1" as="geometry">
            <mxPoint x="494" y="225" as="sourcePoint" />
            <mxPoint x="494" y="185" as="targetPoint" />
          </mxGeometry>
        </mxCell>
        <mxCell id="eq973xPTBbHm2vx8-wRq-57" value="" style="endArrow=none;html=1;rounded=0;" parent="1" edge="1">
          <mxGeometry width="50" height="50" relative="1" as="geometry">
            <mxPoint x="487" y="640" as="sourcePoint" />
            <mxPoint x="487" y="590" as="targetPoint" />
          </mxGeometry>
        </mxCell>
        <mxCell id="eq973xPTBbHm2vx8-wRq-60" value="Effettua" style="rhombus;whiteSpace=wrap;html=1;" parent="1" vertex="1">
          <mxGeometry x="674" y="-300" width="80" height="80" as="geometry" />
        </mxCell>
        <mxCell id="eq973xPTBbHm2vx8-wRq-64" value="Appartiene" style="rhombus;whiteSpace=wrap;html=1;" parent="1" vertex="1">
          <mxGeometry x="434" y="250" width="80" height="80" as="geometry" />
        </mxCell>
        <mxCell id="eq973xPTBbHm2vx8-wRq-67" value="Contiene" style="rhombus;whiteSpace=wrap;html=1;" parent="1" vertex="1">
          <mxGeometry x="230" y="30" width="80" height="80" as="geometry" />
        </mxCell>
        <mxCell id="eq973xPTBbHm2vx8-wRq-72" style="edgeStyle=orthogonalEdgeStyle;rounded=0;orthogonalLoop=1;jettySize=auto;html=1;entryX=1;entryY=0.5;entryDx=0;entryDy=0;" parent="1" source="eq973xPTBbHm2vx8-wRq-70" target="eq973xPTBbHm2vx8-wRq-60" edge="1">
          <mxGeometry relative="1" as="geometry" />
        </mxCell>
        <mxCell id="eq973xPTBbHm2vx8-wRq-74" style="edgeStyle=orthogonalEdgeStyle;rounded=0;orthogonalLoop=1;jettySize=auto;html=1;entryX=0.5;entryY=0;entryDx=0;entryDy=0;" parent="1" source="eq973xPTBbHm2vx8-wRq-70" target="eq973xPTBbHm2vx8-wRq-73" edge="1">
          <mxGeometry relative="1" as="geometry" />
        </mxCell>
        <mxCell id="eq973xPTBbHm2vx8-wRq-70" value="Prenotazione" style="rounded=0;whiteSpace=wrap;html=1;" parent="1" vertex="1">
          <mxGeometry x="884" y="-290" width="120" height="60" as="geometry" />
        </mxCell>
        <mxCell id="eq973xPTBbHm2vx8-wRq-73" value="Impegnata" style="rhombus;whiteSpace=wrap;html=1;" parent="1" vertex="1">
          <mxGeometry x="904" y="-160" width="80" height="80" as="geometry" />
        </mxCell>
        <mxCell id="eq973xPTBbHm2vx8-wRq-75" value="" style="endArrow=none;html=1;rounded=0;" parent="1" edge="1">
          <mxGeometry width="50" height="50" relative="1" as="geometry">
            <mxPoint x="919" y="-10" as="sourcePoint" />
            <mxPoint x="969" y="-10" as="targetPoint" />
          </mxGeometry>
        </mxCell>
        <mxCell id="eq973xPTBbHm2vx8-wRq-84" value="" style="endArrow=none;html=1;rounded=0;" parent="1" edge="1">
          <mxGeometry width="50" height="50" relative="1" as="geometry">
            <mxPoint x="360" y="100" as="sourcePoint" />
            <mxPoint x="360" y="40" as="targetPoint" />
          </mxGeometry>
        </mxCell>
        <mxCell id="eq973xPTBbHm2vx8-wRq-85" value="" style="ellipse;whiteSpace=wrap;html=1;aspect=fixed;fillColor=#FFFFFF;" parent="1" vertex="1">
          <mxGeometry x="984" y="-200" width="30" height="30" as="geometry" />
        </mxCell>
        <mxCell id="eq973xPTBbHm2vx8-wRq-86" value="check-in" style="text;html=1;align=center;verticalAlign=middle;whiteSpace=wrap;rounded=0;" parent="1" vertex="1">
          <mxGeometry x="1014" y="-200" width="60" height="30" as="geometry" />
        </mxCell>
        <mxCell id="eq973xPTBbHm2vx8-wRq-87" value="" style="ellipse;whiteSpace=wrap;html=1;aspect=fixed;fillColor=#FFFFFF;" parent="1" vertex="1">
          <mxGeometry x="984" y="-160" width="30" height="30" as="geometry" />
        </mxCell>
        <mxCell id="eq973xPTBbHm2vx8-wRq-88" value="check-out" style="text;html=1;align=center;verticalAlign=middle;whiteSpace=wrap;rounded=0;" parent="1" vertex="1">
          <mxGeometry x="1014" y="-160" width="60" height="30" as="geometry" />
        </mxCell>
      </root>
    </mxGraphModel>
  </diagram>
</mxfile>
